<?xml version="1.0" encoding="utf-8"?>
<!-- Generator: Adobe Illustrator 27.5.0, SVG Export Plug-In . SVG Version: 6.00 Build 0)  -->
<svg version="1.1" xmlns="http://www.w3.org/2000/svg" xmlns:xlink="http://www.w3.org/1999/xlink" x="0px" y="0px"
	 viewBox="0 0 2200 2200" style="enable-background:new 0 0 2200 2200;" xml:space="preserve">
<g id="background">
	<rect style="fill:#FFFFFF;" width="2200" height="2200"/>
</g>
<g id="Objects">
	<g>
		<g>
			<path style="fill:#7A4332;" d="M1718.229,1811.91c-37.695,65.959-106.356,111.012-179.01,117.456
				c-137.67,12.196-260.423-104.311-398.569-106.12c-74.619-0.983-145.361,31.673-217.213,52.982
				c-90.414,26.804-185.497,35.95-278.996,26.815c-74.81-7.304-156.877-32.466-194.192-101.396
				c-34.462-63.659-18.33-147.342,22.26-206.824c40.59-59.493,101.37-99.553,161.779-135.627
				c60.42-36.073,123.165-70.561,171.742-122.951c57.251-61.738,90.361-143.456,136.35-214.966
				c10.878-16.922,23.022-33.531,36.306-49.034c35.371-41.279,86.988-63.302,139.4-57.623c13.291,1.44,26.448,4.604,39.373,9.861
				c84.466,34.342,117.344,139.569,174.911,213.38c56.068,71.867,137.565,114.798,213.695,161.704
				c76.13,46.907,152.873,104.401,187.219,190.184C1761.703,1660.726,1755.924,1745.939,1718.229,1811.91z"/>
		</g>
		<g>
			<path style="fill:#B17659;" d="M986.251,763.863c-38.306,112.47-182.725,143.579-263.855,56.781
				c-26.913-28.799-52.723-68.036-73.888-121.495c-33.409-84.442-28.925-179.908-10.45-268.81
				c14.658-70.542,52.654-150.155,124.047-159.686c69.416-9.266,126.185,53.585,161.686,113.953
				c44.054,74.934,77.693,157.892,83.085,244.645C1009.266,667.752,1002.346,716.624,986.251,763.863z"/>
		</g>
		<g>
			<path style="fill:#B17659;" d="M629.983,1057.681c-2.476,64.516-29.446,142.371-105.983,171.111
				c-80.162,30.088-158.615,12.605-210.201-59.74c-24.591-34.485-58.847-108.409-68.341-149.497
				c-26.513-114.766-13.212-263.433,85.906-307.009c34.177-15.033,73.324,3.029,103.193,22.646
				c70.705,46.441,119.172,117.395,157.2,190.976C612.942,967.149,631.759,1011.172,629.983,1057.681z"/>
		</g>
		<g>
			<path style="fill:#B17659;" d="M1213.749,787.76c38.306,112.47,182.725,143.579,263.855,56.781
				c26.913-28.799,52.723-68.036,73.888-121.495c33.409-84.442,28.925-179.908,10.45-268.81
				c-14.658-70.542-52.654-150.155-124.047-159.686c-69.416-9.266-126.185,53.585-161.686,113.953
				c-44.054,74.934-77.693,157.892-83.085,244.645C1190.734,691.649,1197.654,740.521,1213.749,787.76z"/>
		</g>
		<g>
			<path style="fill:#B17659;" d="M1570.017,1081.578c2.476,64.516,29.446,142.371,105.983,171.111
				c80.162,30.088,158.615,12.605,210.201-59.74c24.591-34.485,58.847-108.409,68.341-149.497
				c26.513-114.766,13.212-263.433-85.906-307.009c-34.177-15.033-73.324,3.029-103.193,22.646
				c-70.705,46.441-119.172,117.395-157.2,190.976C1587.058,991.046,1568.241,1035.068,1570.017,1081.578z"/>
		</g>
	</g>
</g>
</svg>
